<svg id="Layer_1" data-name="Layer 1" xmlns="http://www.w3.org/2000/svg" viewBox="0 0 206.87 116.66"><defs><style>.cls-1{fill:#f4e505;}.cls-2{fill:#e31e26;}.cls-3{fill:#fff;}</style></defs><path d="M206.37,16.68s-16.44-4.34-22.76-4.9c0,0-25,13.5-32,18a19.16,19.16,0,0,0-8.67,13.89l35.71-26.32h28C207.31,17.39,206.37,16.68,206.37,16.68Z" transform="translate(0 0.63)"/><path d="M148.55,27.33c7.32-4.9,32.62-18.73,32.62-18.73l0,0A30.69,30.69,0,0,0,159-.63a44.23,44.23,0,0,0-20.71,5H0c0,3.71,5.6,6.56,12.14,6.56H52.36L86.62,35.12V71.37c0,15.73,8.26,29.44,21.78,37.35S128.68,116,138.63,116V46.87C138.63,40.78,140.47,32.73,148.55,27.33ZM167.87,8a2.51,2.51,0,1,1-2.51,2.51A2.51,2.51,0,0,1,167.87,8Zm-29.13,13,15.69-8.68,6.89.57L138.74,25.36Z" transform="translate(0 0.63)"/><path class="cls-1" d="M52.36,10.91H110c-12.89,0-23.4,10.35-23.4,24.21Z" transform="translate(0 0.63)"/><path class="cls-2" d="M178,10.33A31.71,31.71,0,0,0,157.78,2.9V-.61l1.25,0A30.63,30.63,0,0,1,181.17,8.6Z" transform="translate(0 0.63)"/><path class="cls-2" d="M178.63,17.39l-25,18.43s-.29-2.7,3.47-5.74,26.5-18.3,26.5-18.3Z" transform="translate(0 0.63)"/><path class="cls-3" d="M128.14,64.47V52.15c0-5.18-2.11-8.77-6.93-12.18L100.79,25.54a14.32,14.32,0,0,0,2,21Z" transform="translate(0 0.63)"/><path class="cls-3" d="M128.14,64.47V52.15c0-5.18-2.11-8.77-6.93-12.18L100.79,25.54a14.32,14.32,0,0,0,2,21Z" transform="translate(0 0.63)"/><path class="cls-3" d="M151.59,29.82c7-4.54,32-18,32-18a16.24,16.24,0,0,0-2.41-3.15l0,0s-25.3,13.83-32.62,18.73-9.57,12.17-9.87,18l-.05,1.51,4.29-3.16A19.16,19.16,0,0,1,151.59,29.82Z" transform="translate(0 0.63)"/><path class="cls-3" d="M167.87,8a2.51,2.51,0,1,1-2.51,2.51A2.51,2.51,0,0,1,167.87,8Z" transform="translate(0 0.63)"/><polygon class="cls-3" points="138.74 21.57 154.43 12.89 161.32 13.45 138.74 25.98 138.74 21.57"/></svg>